<?xml version="1.0" encoding="UTF-8" standalone="no"?>
<svg
   width="128"
   height="128"
   version="1.1"
   id="svg6"
   sodipodi:docname="icon.svg"
   inkscape:version="1.3.2 (091e20e, 2023-11-25, custom)"
   xmlns:inkscape="http://www.inkscape.org/namespaces/inkscape"
   xmlns:sodipodi="http://sodipodi.sourceforge.net/DTD/sodipodi-0.dtd"
   xmlns="http://www.w3.org/2000/svg"
   xmlns:svg="http://www.w3.org/2000/svg">
  <defs
     id="defs6">
    <inkscape:path-effect
       effect="spiro"
       id="path-effect7"
       is_visible="true"
       lpeversion="1" />
    <inkscape:path-effect
       effect="spiro"
       id="path-effect7-9"
       is_visible="true"
       lpeversion="1" />
    <inkscape:path-effect
       effect="spiro"
       id="path-effect7-9-0"
       is_visible="true"
       lpeversion="1" />
    <inkscape:path-effect
       effect="spiro"
       id="path-effect7-1"
       is_visible="true"
       lpeversion="1" />
    <inkscape:path-effect
       effect="spiro"
       id="path-effect7-1-1"
       is_visible="true"
       lpeversion="1" />
    <inkscape:path-effect
       effect="spiro"
       id="path-effect7-1-1-1"
       is_visible="true"
       lpeversion="1" />
  </defs>
  <sodipodi:namedview
     id="namedview6"
     pagecolor="#505050"
     bordercolor="#eeeeee"
     borderopacity="1"
     inkscape:showpageshadow="0"
     inkscape:pageopacity="0"
     inkscape:pagecheckerboard="0"
     inkscape:deskcolor="#505050"
     inkscape:zoom="5.3125"
     inkscape:cx="74.070588"
     inkscape:cy="43.388235"
     inkscape:window-width="2560"
     inkscape:window-height="1377"
     inkscape:window-x="2152"
     inkscape:window-y="84"
     inkscape:window-maximized="1"
     inkscape:current-layer="layer1" />
  <rect
     width="124"
     height="124"
     x="2"
     y="2"
     fill="#363d52"
     stroke="#212532"
     stroke-width="4"
     rx="14"
     id="rect1"
     style="display:none" />
  <g
     id="layer1"
     inkscape:label="Layer 1">
    <path
       style="fill:#501616;stroke-width:20"
       d="m 44.611765,56.658824 c -0.769101,5.448075 0.0029,11.10525 2.20368,16.148035 2.200761,5.042786 5.823563,9.455829 10.341051,12.596743 4.517487,3.140915 9.915907,5.000137 15.409435,5.307029 5.493529,0.306892 11.06544,-0.939481 15.904657,-3.55769 4.768148,-2.579758 8.906977,-6.633053 10.720814,-11.741907 0.906918,-2.554426 1.212228,-5.33605 0.758338,-8.008423 C 99.495846,64.730238 98.268634,62.176252 96.376471,60.235294 94.022843,57.82097 90.743153,56.444432 87.404772,55.971422 84.06639,55.498412 80.658003,55.873815 77.359997,56.575017 70.763985,57.977422 64.343011,60.688658 57.6,60.611765 53.013386,60.559462 48.449855,59.170561 44.611765,56.658824 Z"
       id="path7"
       inkscape:path-effect="#path-effect7"
       inkscape:original-d="M 44.611765,56.658824 C 40.282353,54.839216 73.85098,76.862745 88.470588,87.152941 103.0902,97.443137 93.866667,69.145098 96.376471,60.235294 98.886275,51.32549 70.4,60.54902 57.6,60.611765 44.8,60.67451 48.941176,57.72549 44.611765,56.658824 Z"
       transform="matrix(1.8846372,-0.70206562,0.59239695,1.5902407,-109.58404,23.30665)" />
    <path
       style="fill:#c83737;stroke-width:20"
       d="m 44.611765,56.658824 c -0.769101,5.448075 0.0029,11.10525 2.20368,16.148035 2.200761,5.042786 5.823563,9.455829 10.341051,12.596743 4.517487,3.140915 9.915907,5.000137 15.409435,5.307029 5.493529,0.306892 11.06544,-0.939481 15.904657,-3.55769 4.768148,-2.579758 8.906977,-6.633053 10.720814,-11.741907 0.906918,-2.554426 1.212228,-5.33605 0.758338,-8.008423 C 99.495846,64.730238 98.268634,62.176252 96.376471,60.235294 94.022843,57.82097 90.743153,56.444432 87.404772,55.971422 84.06639,55.498412 80.658003,55.873815 77.359997,56.575017 70.763985,57.977422 64.343011,60.688658 57.6,60.611765 53.013386,60.559462 48.449855,59.170561 44.611765,56.658824 Z"
       id="path7-0"
       inkscape:path-effect="#path-effect7-9"
       inkscape:original-d="M 44.611765,56.658824 C 40.282353,54.839216 73.85098,76.862745 88.470588,87.152941 103.0902,97.443137 93.866667,69.145098 96.376471,60.235294 98.886275,51.32549 70.4,60.54902 57.6,60.611765 44.8,60.67451 48.941176,57.72549 44.611765,56.658824 Z"
       transform="matrix(1.3612485,-1.1779154,0.99391496,1.1486099,-90.929764,93.225306)" />
    <path
       style="fill:#de8787;stroke-width:20"
       d="m 44.611765,56.658824 c -0.769101,5.448075 0.0029,11.10525 2.20368,16.148035 2.200761,5.042786 5.823563,9.455829 10.341051,12.596743 4.517487,3.140915 9.915907,5.000137 15.409435,5.307029 5.493529,0.306892 11.06544,-0.939481 15.904657,-3.55769 4.768148,-2.579758 8.906977,-6.633053 10.720814,-11.741907 0.906918,-2.554426 1.212228,-5.33605 0.758338,-8.008423 C 99.495846,64.730238 98.268634,62.176252 96.376471,60.235294 94.022843,57.82097 90.743153,56.444432 87.404772,55.971422 84.06639,55.498412 80.658003,55.873815 77.359997,56.575017 70.763985,57.977422 64.343011,60.688658 57.6,60.611765 53.013386,60.559462 48.449855,59.170561 44.611765,56.658824 Z"
       id="path7-0-6"
       inkscape:path-effect="#path-effect7-9-0"
       inkscape:original-d="M 44.611765,56.658824 C 40.282353,54.839216 73.85098,76.862745 88.470588,87.152941 103.0902,97.443137 93.866667,69.145098 96.376471,60.235294 98.886275,51.32549 70.4,60.54902 57.6,60.611765 44.8,60.67451 48.941176,57.72549 44.611765,56.658824 Z"
       transform="matrix(0.88802069,-1.1531652,0.97303097,0.74930425,-41.190605,118.43992)" />
    <path
       style="fill:#374548;stroke-width:20"
       d="m 44.611765,56.658824 c -0.769101,5.448075 0.0029,11.10525 2.20368,16.148035 2.200761,5.042786 5.823563,9.455829 10.341051,12.596743 4.517487,3.140915 9.915907,5.000137 15.409435,5.307029 5.493529,0.306892 11.06544,-0.939481 15.904657,-3.55769 4.768148,-2.579758 8.906977,-6.633053 10.720814,-11.741907 0.906918,-2.554426 1.212228,-5.33605 0.758338,-8.008423 C 99.495846,64.730238 98.268634,62.176252 96.376471,60.235294 94.022843,57.82097 90.743153,56.444432 87.404772,55.971422 84.06639,55.498412 80.658003,55.873815 77.359997,56.575017 70.763985,57.977422 64.343011,60.688658 57.6,60.611765 53.013386,60.559462 48.449855,59.170561 44.611765,56.658824 Z"
       id="path7-6"
       inkscape:path-effect="#path-effect7-1"
       inkscape:original-d="M 44.611765,56.658824 C 40.282353,54.839216 73.85098,76.862745 88.470588,87.152941 103.0902,97.443137 93.866667,69.145098 96.376471,60.235294 98.886275,51.32549 70.4,60.54902 57.6,60.611765 44.8,60.67451 48.941176,57.72549 44.611765,56.658824 Z"
       transform="matrix(-1.8720585,0.7349495,-0.62014413,-1.579627,240.17243,101.00453)" />
    <path
       style="fill:#6f8a91;stroke-width:20"
       d="m 44.611765,56.658824 c -0.769101,5.448075 0.0029,11.10525 2.20368,16.148035 2.200761,5.042786 5.823563,9.455829 10.341051,12.596743 4.517487,3.140915 9.915907,5.000137 15.409435,5.307029 5.493529,0.306892 11.06544,-0.939481 15.904657,-3.55769 4.768148,-2.579758 8.906977,-6.633053 10.720814,-11.741907 0.906918,-2.554426 1.212228,-5.33605 0.758338,-8.008423 C 99.495846,64.730238 98.268634,62.176252 96.376471,60.235294 94.022843,57.82097 90.743153,56.444432 87.404772,55.971422 84.06639,55.498412 80.658003,55.873815 77.359997,56.575017 70.763985,57.977422 64.343011,60.688658 57.6,60.611765 53.013386,60.559462 48.449855,59.170561 44.611765,56.658824 Z"
       id="path7-6-4"
       inkscape:path-effect="#path-effect7-1-1"
       inkscape:original-d="M 44.611765,56.658824 C 40.282353,54.839216 73.85098,76.862745 88.470588,87.152941 103.0902,97.443137 93.866667,69.145098 96.376471,60.235294 98.886275,51.32549 70.4,60.54902 57.6,60.611765 44.8,60.67451 48.941176,57.72549 44.611765,56.658824 Z"
       transform="matrix(-1.4403648,1.0780362,-0.90963769,-1.2153675,216.59612,45.647352)" />
    <path
       style="fill:#b7c4c8;stroke-width:20"
       d="m 44.611765,56.658824 c -0.769101,5.448075 0.0029,11.10525 2.20368,16.148035 2.200761,5.042786 5.823563,9.455829 10.341051,12.596743 4.517487,3.140915 9.915907,5.000137 15.409435,5.307029 5.493529,0.306892 11.06544,-0.939481 15.904657,-3.55769 4.768148,-2.579758 8.906977,-6.633053 10.720814,-11.741907 0.906918,-2.554426 1.212228,-5.33605 0.758338,-8.008423 C 99.495846,64.730238 98.268634,62.176252 96.376471,60.235294 94.022843,57.82097 90.743153,56.444432 87.404772,55.971422 84.06639,55.498412 80.658003,55.873815 77.359997,56.575017 70.763985,57.977422 64.343011,60.688658 57.6,60.611765 53.013386,60.559462 48.449855,59.170561 44.611765,56.658824 Z"
       id="path7-6-4-6"
       inkscape:path-effect="#path-effect7-1-1-1"
       inkscape:original-d="M 44.611765,56.658824 C 40.282353,54.839216 73.85098,76.862745 88.470588,87.152941 103.0902,97.443137 93.866667,69.145098 96.376471,60.235294 98.886275,51.32549 70.4,60.54902 57.6,60.611765 44.8,60.67451 48.941176,57.72549 44.611765,56.658824 Z"
       transform="matrix(-0.80683323,1.1944192,-1.0078408,-0.680799,163.98093,1.1119007)" />
  </g>
</svg>
